# xmcd
#
# Track frame offsets:
#	150
#	15698
#	29951
#	45563
#	60175
#	69052
#	79636
#	93631
#	102887
#	115704
#	127215
#	144951
#	156384
#
# Disc length: 2247 seconds
#
# Revision: 1
# Processed by: cddbd v1.5.2PL0 Copyright (c) Steve Scherf et al.
# Submitted via: EasyCDDAExtractor 5.0.6
#
DISCID=a708c50d
DTITLE=The Bombs - Straight From The Bar
DYEAR=2009
DGENRE=Rock and Roll
TTITLE0=Music For You
TTITLE1=Hard Shaked Bottle
TTITLE2=Nevertheless
TTITLE3=The Godfather
TTITLE4=Rock My Baby Doll
TTITLE5=Rockbilly's On My Way
TTITLE6=Magic Island
TTITLE7=Crime #1
TTITLE8=Cheers
TTITLE9=Two Years, Six Months
TTITLE10=Bomb's Threat
TTITLE11=Wild At Heart
TTITLE12=Most Rockin' (Bonustrack)
EXTD=
EXTT0=
EXTT1=
EXTT2=
EXTT3=
EXTT4=
EXTT5=
EXTT6=
EXTT7=
EXTT8=
EXTT9=
EXTT10=
EXTT11=
EXTT12=
PLAYORDER=
